<svg width="32" height="32" viewBox="0 0 32 32" fill="none" xmlns="http://www.w3.org/2000/svg">
  <rect width="32" height="32" rx="7" fill="black" />
  <g transform="translate(6 6.5) scale(0.78)">
    <path
      d="M 21.12 22.771 C 26.27 17.529 26.232 9.117 21.036 3.921 C 15.84 -1.275 7.428 -1.311 2.187 3.838 L 6.605 8.256 C 7.302 8.953 8.427 8.918 9.315 8.488 C 11.368 7.49 13.828 7.903 15.442 9.517 C 17.056 11.132 17.469 13.592 16.471 15.645 C 16.04 16.532 16.005 17.657 16.702 18.354 L 21.12 22.771 Z"
      fill="white"
    />
    <path
      d="M 18.743 24.991 L 12.189 24.991 C 11.242 24.991 10.335 24.614 9.665 23.945 L 1.045 15.326 C 0.376 14.657 0 13.748 0 12.801 L 0 6.248 Z M 6.694 24.991 L 2.678 24.991 C 1.199 24.991 0 23.792 0 22.313 L 0 18.297 Z"
      fill="white"
    />
  </g>
</svg>
